<svg xmlns="http://www.w3.org/2000/svg" xmlns:xlink="http://www.w3.org/1999/xlink" id="Layer_1" x="0px" y="0px" viewBox="0 0 350 122.2" xml:space="preserve"> <g> <g> <path fill="#FFFFFF" d="M79.4,64.3L63.3,21.7H24.6c-6.1,0-13,1-18,4.7C2.7,29.3,0,33.6,0,38.9c0,3.2,0.8,6,2.2,8.2 c1.5,2.2,3.6,4,6.4,5.4c2.8,1.4,6.2,2.4,10.2,3L28,57c2.1,0.3,3.8,0.8,4.9,1.4c1.2,0.6,2,1.3,2.4,2.1c0.5,0.8,0.7,1.8,0.6,3 c0,1.2-0.3,2.3-1,3.2c-0.7,1-1.8,1.7-3.4,2.2c-1.6,0.6-3.7,0.8-6.4,0.8c-2,0-3.7-0.3-5.1-0.8c-1.5-0.5-2.6-1.1-3.6-1.9 c-0.9-0.8-1.6-1.6-2.1-2.4c-0.5-0.8-0.7-1.6-0.7-2.4H0C0,63,0.1,64,0.4,65.1C0.6,66.3,1,67.6,1.7,69c0.6,1.4,1.6,2.8,2.7,4.3 C5.6,74.7,7.1,76,9,77.2c1.9,1.2,4.1,2.2,6.8,2.9c2.7,0.7,5.8,1.1,9.4,1.1c4.3,0,8-0.5,11.1-1.4c3.2-0.9,5.8-2.2,7.9-3.9 c2.1-1.6,3.6-3.5,4.7-5.6c1-2.1,1.5-4.4,1.5-6.8c0-5.2-1.6-9.2-4.7-12.1c-3.1-2.9-7.6-4.7-13.6-5.6l-9.7-1.5c-2.7-0.4-4.7-1-6-2 c-1.3-0.9-2-2-2-3.4c0-5.3,6.2-5.7,10.3-5.7h28.2l17.3,45.6l2.2,5.9L66,102.9h14.5l28.6-81.2H94.2L79.4,64.3z"></path> <rect x="113.5" fill="#FFFFFF" width="14.3" height="80.1"></rect> <path fill="#FFFFFF" d="M247.7,27.3c-2.1-2.2-4.5-3.8-7.2-5c-2.8-1.2-5.8-1.7-9.1-1.8c-1.8,0-3.5,0.2-5,0.5 c-1.5,0.3-2.9,0.7-4,1.3c-1.2,0.5-2.2,1.1-3.1,1.7c-0.7,0.5-1.4,1-2.1,1.6c-0.7,0.6-1.3,1.2-1.8,1.8h-0.6l-1.1-5.7h-13.2v58.3 h14.3V46.3c0-2.5,0.6-4.7,1.6-6.6c1.1-1.9,2.5-3.3,4.4-4.4c1.9-1,4.1-1.6,6.6-1.6c2.5,0,4.7,0.6,6.6,1.6c1.9,1.1,3.3,2.5,4.4,4.4 c1,1.9,1.6,4.1,1.6,6.6v33.7h14.3V45.2c0-3.7-0.6-7.1-1.7-10.1C251.4,32,249.8,29.5,247.7,27.3z"></path> <path fill="#FFFFFF" d="M185,29c-2.6-2.6-5.6-4.7-9.1-6.1c-3.5-1.5-7.2-2.2-11.2-2.2c-4.3,0-8.3,0.8-11.9,2.2 c-3.6,1.5-6.8,3.6-9.4,6.3c-2.7,2.7-4.7,5.9-6.2,9.6c-1.5,3.7-2.2,7.8-2.2,12.2c0,4.4,0.8,8.5,2.2,12.2c1.5,3.7,3.5,6.9,6.2,9.6 c2.6,2.7,5.8,4.8,9.4,6.3c3.6,1.5,7.6,2.2,11.9,2.3c3.7,0,6.9-0.5,9.7-1.5c2.8-0.9,5.3-2.2,7.3-3.7c2-1.5,3.8-3.1,5.1-4.7 c1.4-1.7,2.4-3.3,3.2-4.8c0.8-1.5,1.3-2.7,1.5-3.7h-14.9c-0.3,0.6-0.8,1.3-1.4,2c-0.6,0.7-1.5,1.4-2.5,2c-1,0.7-2.2,1.2-3.5,1.6 c-1.4,0.4-2.9,0.6-4.6,0.6c-2.7,0-5.2-0.6-7.3-1.8c-2.2-1.1-3.9-2.7-5.3-4.8c-1.4-2.1-2.3-4.4-2.8-7.2h43.5l0.2-1.6 c0.1-0.5,0.1-1.1,0.2-1.8c0.1-0.7,0.1-1.5,0.1-2.3c0-4.2-0.8-8-2.2-11.6C189.7,34.7,187.6,31.6,185,29z M149.3,45.8 c0.6-2.5,1.5-4.7,2.8-6.7c1.3-2,3-3.5,5.1-4.7c2.1-1.1,4.6-1.7,7.5-1.8c2.7,0,5.1,0.6,7,1.8c2,1.1,3.6,2.7,4.8,4.7 c1.2,2,2,4.2,2.5,6.7H149.3z"></path> <path fill="#FFFFFF" d="M285.3,66.5c-0.7-0.7-1-1.7-1-3V41.1L270,55.4v11c0,4.4,1.3,7.7,3.8,10.1c2.5,2.4,6.2,3.6,11.1,3.6h12.6 V67.5h-9.1C287,67.5,286,67.1,285.3,66.5z"></path> <path fill="#FFFFFF" d="M345.3,51.4c-3.1-2.9-7.6-4.7-13.6-5.6l-9.7-1.5c-2.7-0.4-4.7-1-6-2c-1.3-0.9-2-2-2-3.4 c0-1.2,0.4-2.3,1.1-3.4c0.8-1,1.9-1.9,3.4-2.5c1.5-0.6,3.4-1,5.7-1c2.3,0,4.3,0.4,5.9,1.1c1.6,0.7,2.9,1.7,3.7,2.8 c0.9,1.1,1.3,2.3,1.3,3.5h13.7c0-1.4-0.3-2.9-0.9-4.6c-0.6-1.7-1.6-3.3-2.8-5c-1.3-1.7-2.9-3.2-4.8-4.6c-1.9-1.4-4.3-2.5-6.9-3.4 c-2.7-0.8-5.7-1.3-9.1-1.3c-4,0-7.5,0.5-10.6,1.5c-3.1,1-5.6,2.3-7.7,4c-2.1,1.7-3.6,3.6-4.7,5.8c-1,2.2-1.6,4.5-1.6,7 c0,3.2,0.8,6,2.2,8.2c1.5,2.2,3.6,4,6.4,5.4c2.8,1.4,6.2,2.4,10.2,3l9.1,1.5c2.1,0.3,3.8,0.8,4.9,1.4c1.2,0.6,2,1.3,2.4,2.1 c0.5,0.8,0.7,1.8,0.6,3c0,1.2-0.3,2.3-1,3.2c-0.7,1-1.8,1.7-3.4,2.2c-1.6,0.6-3.7,0.8-6.4,0.8c-2,0-3.7-0.3-5.1-0.8 c-1.5-0.5-2.6-1.1-3.6-1.9c-0.9-0.8-1.6-1.6-2.1-2.4c-0.5-0.8-0.7-1.6-0.7-2.4h-13.7c0,0.7,0.1,1.6,0.4,2.8 c0.2,1.2,0.7,2.5,1.3,3.9c0.7,1.4,1.6,2.8,2.7,4.3c1.2,1.4,2.7,2.7,4.5,3.9c1.9,1.2,4.1,2.2,6.8,2.9c2.7,0.7,5.8,1.1,9.4,1.1 c4.2,0,8-0.5,11.1-1.4c3.2-0.9,5.8-2.2,7.9-3.9c2.1-1.6,3.6-3.5,4.7-5.6c1-2.1,1.5-4.4,1.5-6.8C350,58.3,348.4,54.3,345.3,51.4z"></path> </g> <polygon fill-rule="evenodd" clip-rule="evenodd" fill="#2BB8C9" points="284.3,36 270,50.3 270,36 255.7,36 270,21.7 284.3,7.4 284.3,21.7 298.6,21.7 "></polygon> </g> <g> <path fill="#FFFFFF" d="M116.2,102.9h-2.6V99h2.6v-4.7h4.1V99h3.7v3.9h-3.7v8c0,0.8,0.4,1.1,1.1,1.1h2.6v3.6h-3.6 c-2.8,0-4.2-1.4-4.2-3.9V102.9z"></path> <path fill="#FFFFFF" d="M135.6,114h-0.2c-0.3,0.4-0.7,0.7-1.1,1c-0.8,0.5-1.9,1-3.6,1c-3.8,0-6-2.3-6-5.1c0-3.3,2.3-5.6,6.8-5.6 h3.7V105c0-1.8-1.1-3.1-2.9-3.1s-2.8,1.2-2.9,2.1h-4.1c0.4-2.7,2.6-5.4,7-5.4c4.2,0,7,2.8,7,6.4v10.6h-3.4L135.6,114z M135.2,108.5 h-3.4c-2.1,0-3.1,0.8-3.1,2.1c0,1.3,0.9,2.1,2.6,2.1c2.5,0,3.9-1.4,3.9-3.8V108.5z"></path> <path fill="#FFFFFF" d="M142,92.8h4.1v13.7l6.2-7.5h4.7l-6.8,8.2l7.2,8.5h-4.7l-6.5-7.8v7.8H142V92.8z"></path> <path fill="#FFFFFF" d="M172.1,110.8c-0.4,1.3-2.4,5.2-7.7,5.2c-4.9,0-8.5-3.6-8.5-8.7c0-5.1,3.6-8.7,8.5-8.7 c4.6,0,8.1,3.6,8.1,8.3c0,0.5-0.1,0.9-0.1,1.2l-0.1,0.5h-12.4c0.4,2.3,2.1,3.9,4.4,3.9c1.9,0,3.1-1.1,3.4-1.8H172.1z M168.5,105.9 c-0.4-2.1-1.8-3.8-4.1-3.8c-2.5,0-3.9,1.6-4.4,3.8H168.5z"></path> <path fill="#FFFFFF" d="M177.3,110.6c0,0.8,1,2.1,3.3,2.1c2.3,0,3.1-0.8,3.1-1.8c0-1-0.5-1.6-2.3-1.9l-2.6-0.4 c-3.4-0.6-5.4-2-5.4-4.7c0-2.8,2.4-5.2,7-5.2c4.9,0,7,3.4,7,5.4h-3.9c0-1-1.1-2.1-3.1-2.1c-2,0-2.9,0.9-2.9,2 c0,0.8,0.8,1.3,2.3,1.5l2.8,0.4c3.4,0.5,5.2,2.1,5.2,5.1c0,2.7-2.3,5.1-7.2,5.1c-6.2,0-7.2-4.3-7.2-5.4H177.3z"></path> <path fill="#FFFFFF" d="M195,118.4h3.3c0.8,0,1.1-0.3,1.2-0.8l0.3-0.8L193,99h4.2l4.2,11.3h0.7l3.9-11.3h4.2l-7,19.9 c-0.8,2.3-1.8,3.3-4.9,3.3H195V118.4z"></path> <path fill="#FFFFFF" d="M226.7,107.3c0,5.1-3.6,8.7-8.5,8.7c-4.9,0-8.5-3.6-8.5-8.7c0-5.1,3.6-8.7,8.5-8.7 C223.1,98.7,226.7,102.3,226.7,107.3z M222.6,107.3c0-2.9-2-4.9-4.4-4.9c-2.4,0-4.4,2-4.4,4.9c0,2.9,2,4.9,4.4,4.9 C220.7,112.2,222.6,110.3,222.6,107.3z"></path> <path fill="#FFFFFF" d="M228.6,99h4.1v9.6c0,2.1,1.5,3.6,3.6,3.6c2.1,0,3.6-1.5,3.6-3.6V99h4.1v16.7h-3.7l-0.3-1.6h-0.2 c-0.3,0.4-0.7,0.7-1.1,1c-0.7,0.5-1.9,1-3.5,1c-3.7,0-6.5-2.8-6.5-7V99z"></path> <path fill="#FFFFFF" d="M254.8,102.9H252V99h2.8v-2.5c0-2.5,1.6-4.1,4.1-4.1h3.6V96H260c-0.7,0-1.1,0.5-1.1,1.1V99h3.6v3.9h-3.6 v12.8h-4.1V102.9z"></path> <path fill="#FFFFFF" d="M263.9,99h4.1v9.6c0,2.1,1.5,3.6,3.6,3.6c2.1,0,3.6-1.5,3.6-3.6V99h4.1v16.7h-3.7l-0.3-1.6h-0.2 c-0.3,0.4-0.7,0.7-1.1,1c-0.8,0.5-1.9,1-3.5,1c-3.7,0-6.5-2.8-6.5-7V99z"></path> <path fill="#FFFFFF" d="M281.9,99h3.4l0.3,1.5h0.2c0.2-0.3,0.4-0.5,0.7-0.7c0.5-0.4,1.2-0.8,2.2-0.8h3.3v3.9h-2.9 c-2.1,0-3.1,1-3.1,3.1v9.6h-4.1V99z"></path> <path fill="#FFFFFF" d="M294.2,102.9h-2.6V99h2.6v-4.7h4.1V99h3.7v3.9h-3.7v8c0,0.8,0.4,1.1,1.1,1.1h2.6v3.6h-3.6 c-2.8,0-4.2-1.4-4.2-3.9V102.9z"></path> <path fill="#FFFFFF" d="M304.3,92.8h4.1v7.8h0.2c0.3-0.4,0.7-0.7,1.1-1c0.7-0.5,1.9-1,3.5-1c3.7,0,6.5,2.8,6.5,7v10h-4.1V106 c0-2.1-1.5-3.6-3.6-3.6c-2.1,0-3.6,1.5-3.6,3.6v9.6h-4.1V92.8z"></path> <path fill="#FFFFFF" d="M337.5,110.8c-0.4,1.3-2.4,5.2-7.7,5.2c-4.9,0-8.5-3.6-8.5-8.7c0-5.1,3.6-8.7,8.5-8.7 c4.6,0,8.1,3.6,8.1,8.3c0,0.5-0.1,0.9-0.1,1.2l-0.1,0.5h-12.4c0.4,2.3,2.1,3.9,4.4,3.9c1.9,0,3.1-1.1,3.4-1.8H337.5z M333.9,105.9 c-0.4-2.1-1.8-3.8-4.1-3.8c-2.5,0-3.9,1.6-4.4,3.8H333.9z"></path> <path fill="#FFFFFF" d="M339.9,99h3.4l0.3,1.5h0.2c0.2-0.3,0.4-0.5,0.7-0.7c0.5-0.4,1.2-0.8,2.2-0.8h3.3v3.9h-2.9 c-2.1,0-3.1,1-3.1,3.1v9.6h-4.1V99z"></path> </g> </svg>